<?xml version="1.0" encoding="utf-8"?>
<!-- Generator: Adobe Illustrator 16.0.0, SVG Export Plug-In . SVG Version: 6.00 Build 0)  -->
<!DOCTYPE svg PUBLIC "-//W3C//DTD SVG 1.1//EN" "http://www.w3.org/Graphics/SVG/1.1/DTD/svg11.dtd">
<svg version="1.1" id="Logo_Horizontal_Color_1_" xmlns="http://www.w3.org/2000/svg" xmlns:xlink="http://www.w3.org/1999/xlink"
	 x="0px" y="0px" width="122.88px" height="122.88px" viewBox="0 0 122.88 122.88" enable-background="new 0 0 122.88 122.88"
	 xml:space="preserve">
<g id="Logo_Font_1_">
	<g>
		<path fill="#7F7F7F" d="M92.138,64.099c-0.057-0.189-0.151-0.331-0.283-0.426c-0.132-0.094-0.278-0.142-0.438-0.142
			c-0.161,0-0.312,0.048-0.453,0.142c-0.142,0.095-0.24,0.236-0.297,0.426l-4.388,15.045c-0.057,0.208-0.038,0.373,0.057,0.495
			c0.095,0.123,0.213,0.203,0.354,0.241c0.142,0.038,0.288,0.014,0.439-0.071c0.15-0.085,0.264-0.24,0.34-0.467l3.962-13.516
			l4.104,13.544c0.075,0.227,0.185,0.378,0.326,0.453c0.141,0.075,0.282,0.095,0.424,0.057s0.25-0.123,0.326-0.255
			c0.075-0.132,0.085-0.302,0.028-0.51L92.138,64.099z M83.741,72.202c-0.152-0.444-0.37-0.853-0.654-1.222
			c-0.285-0.369-0.637-0.677-1.055-0.924c0.438-0.321,0.727-0.758,0.869-1.307c0.143-0.55,0.214-1.127,0.214-1.733
			c0-1.289-0.347-2.198-1.04-2.729s-1.686-0.796-2.976-0.796h-3.72v0.009c-0.159,0.018-0.284,0.079-0.37,0.191
			c-0.102,0.133-0.153,0.275-0.153,0.429s0.052,0.296,0.153,0.429c0.086,0.112,0.211,0.174,0.37,0.191v0.006h0.074
			c0.005,0,0.009,0.002,0.014,0.002h1.845c0.004,0,0.008-0.002,0.012-0.002h1.822c0.358,0,0.685-0.009,1.024,0.038
			c0.341,0.048,0.639,0.152,0.894,0.312c0.255,0.161,0.463,0.394,0.624,0.696c0.16,0.304,0.24,0.711,0.24,1.223
			c0,1.004-0.222,1.686-0.666,2.046c-0.444,0.359-1.2,0.497-2.221,0.497h-4.187l0.003,7.341c0,0.203,0.066,0.355,0.198,0.457
			c0.134,0.102,0.276,0.153,0.429,0.153c0.153,0,0.297-0.052,0.429-0.153c0.134-0.102,0.199-0.254,0.199-0.457l-0.001-6.085
			l3.557,0.009c0.646,0,1.177,0.104,1.595,0.312c0.417,0.209,0.75,0.502,0.997,0.881c0.246,0.379,0.417,0.829,0.513,1.35
			c0.095,0.521,0.143,1.104,0.143,1.748c0,1.289-0.342,2.212-1.025,2.771c-0.684,0.56-1.644,0.775-2.953,0.775h-2.62
			c-0.004,0-0.008,0.002-0.012,0.002H75.38v0.007c-0.159,0.018-0.284,0.079-0.37,0.191c-0.102,0.133-0.153,0.275-0.153,0.429
			s0.052,0.296,0.153,0.429s0.255,0.199,0.458,0.199h0.042c0,0,0,0,0.001,0h3.816c1.538,0,2.729-0.388,3.574-1.165
			c0.845-0.776,1.268-1.989,1.268-3.638c0-0.492-0.033-0.99-0.1-1.492C84.002,73.122,83.894,72.647,83.741,72.202z M108.441,74.61
			c-0.151,0-0.288,0.052-0.41,0.155c-0.123,0.104-0.184,0.26-0.184,0.468c0,1.284-0.34,2.205-1.02,2.763
			c-0.68,0.557-1.67,0.835-2.972,0.835c-1.265,0-2.256-0.255-2.973-0.765s-1.075-1.445-1.075-2.805v-6.828
			c0-1.342,0.32-2.31,0.962-2.904c0.642-0.596,1.671-0.893,3.086-0.893c0.905,0,1.608,0.113,2.108,0.34s0.868,0.481,1.104,0.765
			c0.236,0.283,0.383,0.558,0.439,0.822s0.085,0.425,0.085,0.481c0,0.208,0.065,0.368,0.198,0.481
			c0.132,0.113,0.272,0.17,0.425,0.17c0.15,0,0.292-0.052,0.424-0.155s0.198-0.27,0.198-0.496c0-0.661-0.146-1.219-0.438-1.672
			c-0.293-0.453-0.675-0.821-1.146-1.104c-0.472-0.284-1.005-0.486-1.6-0.609c-0.594-0.123-1.193-0.185-1.797-0.185
			c-0.831,0-1.566,0.081-2.208,0.241s-1.185,0.435-1.628,0.821c-0.443,0.388-0.783,0.897-1.019,1.53
			c-0.236,0.633-0.354,1.422-0.354,2.366v6.828c0,1.738,0.434,2.961,1.302,3.669c0.867,0.708,2.17,1.062,3.906,1.062
			c0.792,0,1.509-0.08,2.151-0.241c0.641-0.16,1.188-0.425,1.642-0.793c0.452-0.368,0.797-0.859,1.033-1.474
			c0.235-0.613,0.354-1.364,0.354-2.252c0-0.208-0.062-0.364-0.184-0.468C108.729,74.662,108.593,74.61,108.441,74.61z
			 M121.405,79.115l-3.935-10.229l3.256-4.506c0.113-0.15,0.142-0.297,0.085-0.438s-0.146-0.25-0.27-0.326
			c-0.123-0.075-0.265-0.104-0.425-0.085c-0.16,0.02-0.297,0.113-0.41,0.283l-6.085,8.188v-7.904c0-0.189-0.062-0.331-0.185-0.426
			c-0.123-0.094-0.255-0.142-0.396-0.142s-0.273,0.048-0.396,0.142c-0.123,0.095-0.185,0.236-0.185,0.426v15.243
			c0,0.188,0.062,0.33,0.185,0.425c0.122,0.095,0.254,0.142,0.396,0.142s0.273-0.047,0.396-0.142
			c0.122-0.095,0.185-0.236,0.185-0.425v-5.327c0.509-0.661,1.014-1.317,1.514-1.969s0.995-1.317,1.486-1.998l3.623,9.294
			c0.094,0.265,0.217,0.43,0.368,0.496c0.15,0.065,0.297,0.075,0.438,0.027c0.142-0.047,0.25-0.142,0.325-0.283
			S121.462,79.285,121.405,79.115z M89.688,61.417c0.245,0,0.462-0.076,0.651-0.227c0.188-0.151,0.282-0.377,0.282-0.68V47.874
			l4.359,12.75c0.075,0.227,0.18,0.387,0.312,0.481c0.132,0.095,0.273,0.133,0.425,0.113c0.15-0.019,0.297-0.08,0.438-0.184
			c0.142-0.104,0.241-0.241,0.297-0.411l4.501-12.75v12.637c0,0.302,0.095,0.529,0.283,0.68c0.188,0.151,0.405,0.227,0.65,0.227
			c0.246,0,0.468-0.076,0.666-0.227c0.198-0.151,0.297-0.377,0.297-0.68V45.268c0-0.227-0.052-0.435-0.155-0.624
			c-0.104-0.189-0.364-0.284-0.778-0.284h-1.133c-0.302,0-0.523,0.081-0.665,0.241c-0.142,0.161-0.25,0.345-0.325,0.552
			l-4.104,11.815c-0.698-2.04-1.368-3.999-2.01-5.879c-0.642-1.879-1.302-3.83-1.981-5.851c-0.075-0.208-0.198-0.406-0.368-0.595
			s-0.415-0.284-0.735-0.284h-0.906c-0.283,0-0.515,0.09-0.693,0.27c-0.18,0.18-0.269,0.401-0.269,0.666v15.215
			c0,0.302,0.099,0.529,0.297,0.68C89.222,61.342,89.443,61.417,89.688,61.417z M118.688,61.445c0.235,0,0.448-0.075,0.637-0.227
			c0.188-0.151,0.283-0.377,0.283-0.68V45.268c0-0.302-0.1-0.529-0.298-0.68c-0.198-0.151-0.41-0.227-0.637-0.227
			s-0.434,0.076-0.622,0.227c-0.189,0.151-0.283,0.378-0.283,0.68v15.271c0,0.302,0.094,0.529,0.283,0.68
			C118.239,61.37,118.451,61.445,118.688,61.445z M115.386,56.273c0-0.491-0.024-0.977-0.071-1.459
			c-0.047-0.481-0.137-0.944-0.269-1.388c-0.133-0.443-0.326-0.854-0.581-1.232c-0.255-0.377-0.58-0.708-0.977-0.991
			c0.358-0.378,0.59-0.831,0.693-1.36c0.104-0.529,0.156-1.077,0.156-1.643c0-1.417-0.368-2.412-1.104-2.989
			c-0.736-0.576-1.812-0.864-3.228-0.864h-3.759c-0.301,0-0.527,0.101-0.679,0.304c-0.15,0.203-0.227,0.42-0.227,0.651
			c0,0.232,0.076,0.445,0.227,0.637c0.121,0.154,0.29,0.246,0.506,0.277v0.014h3.871c0.321,0,0.637,0.052,0.93,0.099
			c0.292,0.047,0.552,0.138,0.778,0.269c0.227,0.133,0.41,0.331,0.552,0.595c0.142,0.265,0.213,0.605,0.213,1.02
			c0,0.869-0.194,1.459-0.581,1.771s-0.985,0.43-1.892,0.43h-4.498v6.313c0,0.301,0.101,0.527,0.304,0.679
			c0.203,0.151,0.42,0.226,0.651,0.226s0.444-0.075,0.637-0.226c0.193-0.151,0.29-0.377,0.29-0.679l0.001-4.43h3.243
			c0.566,0,1.036,0.132,1.414,0.321c0.378,0.189,0.675,0.458,0.893,0.808c0.217,0.35,0.368,0.765,0.453,1.246
			c0.085,0.482,0.127,1.016,0.127,1.601c0,1.152-0.312,1.983-0.935,2.493s-1.495,0.75-2.685,0.75l-0.795,0.005
			c-0.035-0.003-0.072-0.005-0.109-0.005h-2.689c-0.301,0-0.527,0.102-0.679,0.304c-0.15,0.203-0.227,0.42-0.227,0.651
			c0,0.232,0.076,0.444,0.227,0.637c0.151,0.193,0.378,0.29,0.679,0.29h0.16c0.01,0,0.021,0.002,0.03,0.002h3.795
			c1.642,0,2.911-0.415,3.808-1.246S115.386,58.03,115.386,56.273z M81.396,45.182c-0.095-0.264-0.241-0.467-0.438-0.609
			c-0.198-0.142-0.401-0.213-0.609-0.213c-0.226,0-0.438,0.071-0.637,0.213c-0.198,0.142-0.345,0.345-0.438,0.609
			c-0.718,2.532-1.439,5.043-2.165,7.537c-0.727,2.494-1.458,4.987-2.194,7.48c-0.095,0.322-0.07,0.577,0.071,0.765
			c0.142,0.189,0.33,0.307,0.565,0.354c0.236,0.048,0.472,0.015,0.708-0.099c0.235-0.113,0.4-0.321,0.495-0.623l3.651-12.41
			c1.659,5.648,3.765,12.467,3.765,12.467c0.095,0.302,0.25,0.501,0.468,0.595c0.217,0.095,0.434,0.109,0.65,0.043
			s0.392-0.199,0.523-0.397s0.16-0.429,0.085-0.694L81.396,45.182z"/>
	</g>
</g>
<g id="TV_1_">
	<g>
		<path fill="#7F7F7F" d="M71.438,43.771c-0.028-3.435-2.758-5.836-5.986-5.388L23.247,44.25c-1.804,0.25-3.257,2.446-3.289,4.913
			l-0.339,26.399c-0.033,2.526,1.384,4.771,3.209,5.016l42.903,5.745c3.299,0.441,6.041-2.073,6.012-5.624L71.438,43.771z
			 M58.365,86.682L27.606,82.73c-1.028-0.132-1.918,0.578-2.004,1.581c-0.085,0.997,0.657,1.932,1.673,2.094l30.346,4.835
			c1.624,0.259,3.143-0.558,3.361-1.837C61.201,88.117,60.016,86.894,58.365,86.682z"/>
	</g>
</g>
<g id="Dot_7_">
	<g>
		<path fill="#6600CC" d="M23.203,85.313c-0.206-1.133-0.727-2.008-1.565-2.625c-0.839-0.617-1.83-0.854-2.973-0.715
			c-1.144,0.14-2.051,0.665-2.722,1.575c-0.67,0.908-0.922,1.916-0.753,3.022c0.168,1.105,0.708,1.995,1.62,2.665
			c0.911,0.671,1.921,0.922,3.028,0.756c1.107-0.168,1.997-0.706,2.667-1.615C23.175,87.467,23.408,86.445,23.203,85.313z"/>
	</g>
</g>
<g id="Dot_8_">
	<g>
		<path fill="#003399" d="M15.389,75.999c-0.633-0.972-1.573-1.607-2.82-1.909c-1.248-0.302-2.399-0.109-3.456,0.576
			c-1.055,0.685-1.713,1.637-1.971,2.856c-0.258,1.217-0.044,2.354,0.643,3.41c0.687,1.056,1.642,1.712,2.861,1.972
			c1.22,0.259,2.359,0.046,3.415-0.639c1.057-0.686,1.7-1.659,1.931-2.919C16.22,78.086,16.021,76.97,15.389,75.999z"/>
	</g>
</g>
<g id="Dot_9_">
	<g>
		<path fill="#0099CC" d="M11.676,66.54c-0.228-1.257-0.912-2.303-2.05-3.141c-1.139-0.839-2.392-1.134-3.759-0.889
			c-1.366,0.246-2.441,0.933-3.225,2.06c-0.783,1.127-1.051,2.374-0.804,3.739c0.248,1.363,0.937,2.438,2.065,3.222
			c1.13,0.783,2.379,1.053,3.744,0.807c1.367-0.246,2.437-0.96,3.21-2.142C11.63,69.014,11.903,67.795,11.676,66.54z"/>
	</g>
</g>
<g id="Dot_10_">
	<g>
		<path fill="#009900" d="M11.634,51.345c-0.733-1.36-1.833-2.236-3.298-2.631c-1.464-0.395-2.848-0.219-4.15,0.528
			c-1.3,0.747-2.149,1.852-2.543,3.315c-0.394,1.462-0.215,2.844,0.533,4.145c0.75,1.3,1.858,2.148,3.322,2.543
			c1.465,0.395,2.857,0.189,4.173-0.617c1.316-0.807,2.157-1.882,2.52-3.228C12.554,54.055,12.367,52.703,11.634,51.345z"/>
	</g>
</g>
<g id="Dot_11_">
	<g>
		<path fill="#FFCC00" d="M17.729,36.416c-1.211-1.113-2.631-1.637-4.259-1.569c-1.626,0.067-2.998,0.705-4.112,1.915
			c-1.113,1.208-1.635,2.627-1.567,4.252c0.07,1.625,0.709,2.996,1.921,4.108c1.212,1.114,2.655,1.613,4.326,1.497
			c1.672-0.117,3.021-0.73,4.045-1.842c1.025-1.113,1.524-2.507,1.5-4.18C19.56,38.923,18.94,37.53,17.729,36.416z"/>
	</g>
</g>
<g id="Dot_12_">
	<g>
		<path fill="#FF9900" d="M33.353,29.767c-0.536-1.688-1.584-2.938-3.144-3.747c-1.558-0.808-3.185-0.946-4.876-0.411
			c-1.69,0.534-2.94,1.581-3.749,3.137c-0.807,1.557-0.944,3.181-0.407,4.87c0.537,1.69,1.619,2.929,3.246,3.715
			c1.628,0.786,3.219,0.935,4.774,0.443c1.557-0.492,2.772-1.528,3.647-3.105C33.721,33.091,33.89,31.457,33.353,29.767z"/>
	</g>
</g>
<g id="Dot_13_">
	<g>
		<path fill="#CC0000" d="M50.986,27.41c-0.949-1.624-2.344-2.681-4.185-3.166c-1.839-0.485-3.574-0.252-5.201,0.693
			c-1.626,0.948-2.683,2.34-3.166,4.176c-0.484,1.838-0.214,3.581,0.809,5.225c1.024,1.644,2.382,2.691,4.074,3.137
			c1.694,0.446,3.391,0.205,5.09-0.722c1.702-0.926,2.792-2.309,3.277-4.147C52.168,30.769,51.936,29.037,50.986,27.41z"/>
	</g>
</g>
</svg>
