<?xml version="1.0" encoding="utf-8"?>
<!-- Generator: Adobe Illustrator 16.0.0, SVG Export Plug-In . SVG Version: 6.00 Build 0)  -->
<!DOCTYPE svg PUBLIC "-//W3C//DTD SVG 1.1//EN" "http://www.w3.org/Graphics/SVG/1.1/DTD/svg11.dtd">
<svg version="1.1" id="Logo_LtR_Color_1_" xmlns="http://www.w3.org/2000/svg" xmlns:xlink="http://www.w3.org/1999/xlink" x="0px"
	 y="0px" width="732px" height="164px" viewBox="0 0 732 164" enable-background="new 0 0 732 164" xml:space="preserve">
<g id="Font_Standalone">
	<g>
		<path fill="#7F7F7F" d="M506.247,95.033c-0.882-2.579-2.146-4.942-3.797-7.084s-3.689-3.926-6.108-5.354
			c2.531-1.866,4.21-4.392,5.035-7.578c0.826-3.185,1.238-6.533,1.238-10.05c0-7.468-2.009-12.739-6.026-15.815
			c-4.019-3.073-9.769-4.613-17.252-4.613h-21.56v0.052c-0.921,0.1-1.646,0.458-2.147,1.109c-0.589,0.771-0.885,1.598-0.885,2.484
			c0,0.888,0.296,1.717,0.885,2.485c0.501,0.652,1.226,1.01,2.147,1.109v0.037h0.43c0.027,0,0.05,0.007,0.077,0.007h10.694
			c0.024,0,0.046-0.007,0.07-0.007h10.562c2.08,0,3.969-0.054,5.941,0.219c1.972,0.275,3.698,0.88,5.177,1.812
			c1.479,0.935,2.684,2.28,3.616,4.036c0.93,1.758,1.397,4.119,1.397,7.084c0,5.823-1.289,9.776-3.862,11.862
			c-2.576,2.087-6.958,2.885-12.875,2.885h-24.268l0.016,42.553c0,1.178,0.385,2.062,1.153,2.654
			c0.771,0.589,1.597,0.885,2.485,0.885c0.887,0,1.717-0.296,2.485-0.885c0.771-0.592,1.154-1.477,1.154-2.654l-0.007-35.275
			l20.616,0.052c3.741,0,6.823,0.605,9.246,1.812c2.42,1.21,4.347,2.911,5.779,5.107c1.429,2.198,2.419,4.806,2.972,7.825
			c0.549,3.022,0.825,6.399,0.825,10.132c0,7.471-1.981,12.824-5.943,16.062c-3.962,3.241-9.524,4.495-17.119,4.495h-15.188
			c-0.023,0.001-0.042,0.01-0.065,0.01h-5.368v0.042c-0.921,0.101-1.646,0.459-2.147,1.109c-0.589,0.771-0.885,1.598-0.885,2.484
			c0,0.888,0.296,1.717,0.885,2.485c0.592,0.771,1.477,1.153,2.654,1.153h22.374c8.915,0,15.821-2.249,20.72-6.754
			c4.896-4.502,7.347-11.532,7.347-21.088c0-2.854-0.194-5.738-0.578-8.649C507.758,100.361,507.126,97.615,506.247,95.033z
			 M554.917,48.051c-0.328-1.094-0.876-1.914-1.641-2.464c-0.767-0.547-1.615-0.821-2.543-0.821c-0.931,0-1.805,0.274-2.625,0.821
			c-0.821,0.55-1.395,1.37-1.723,2.464l-25.433,87.22c-0.328,1.206-0.22,2.163,0.328,2.874c0.546,0.714,1.231,1.179,2.051,1.396
			c0.82,0.221,1.667,0.082,2.543-0.41c0.875-0.493,1.531-1.396,1.969-2.711l22.971-78.35l23.792,78.515
			c0.436,1.313,1.066,2.191,1.887,2.628c0.821,0.438,1.641,0.549,2.461,0.328c0.82-0.218,1.449-0.711,1.887-1.479
			c0.436-0.765,0.492-1.75,0.164-2.956L554.917,48.051z M649.429,108.989c-0.877,0-1.669,0.303-2.38,0.904
			c-0.713,0.603-1.066,1.506-1.066,2.71c0,7.447-1.969,12.786-5.906,16.015c-3.938,3.231-9.681,4.846-17.229,4.846
			c-7.33,0-13.073-1.479-17.229-4.435c-4.159-2.957-6.235-8.378-6.235-16.262V73.182c0-7.773,1.858-13.387,5.579-16.836
			c3.717-3.449,9.681-5.174,17.885-5.174c5.25,0,9.324,0.657,12.224,1.971c2.897,1.314,5.03,2.792,6.399,4.436
			c1.366,1.643,2.215,3.23,2.543,4.763c0.328,1.535,0.492,2.464,0.492,2.792c0,1.207,0.382,2.136,1.148,2.793
			c0.764,0.657,1.585,0.985,2.461,0.985c0.875,0,1.695-0.3,2.462-0.903c0.764-0.601,1.148-1.561,1.148-2.875
			c0-3.831-0.849-7.062-2.544-9.69c-1.696-2.628-3.912-4.764-6.645-6.406c-2.735-1.643-5.825-2.817-9.271-3.531
			c-3.446-0.711-6.92-1.067-10.419-1.067c-4.815,0-9.081,0.467-12.799,1.396c-3.72,0.932-6.866,2.521-9.435,4.764
			c-2.571,2.246-4.54,5.202-5.907,8.87c-1.369,3.67-2.051,8.241-2.051,13.715v39.586c0,10.076,2.516,17.165,7.548,21.271
			c5.03,4.105,12.578,6.159,22.644,6.159c4.594,0,8.75-0.465,12.47-1.396c3.718-0.929,6.892-2.464,9.517-4.599
			c2.625-2.136,4.62-4.982,5.989-8.542c1.366-3.557,2.051-7.909,2.051-13.058c0-1.204-0.356-2.107-1.066-2.71
			C651.095,109.292,650.303,108.989,649.429,108.989z M724.577,135.106L701.77,75.81l18.87-26.116
			c0.656-0.875,0.82-1.725,0.492-2.546s-0.849-1.45-1.559-1.89c-0.713-0.436-1.533-0.6-2.462-0.492
			c-0.931,0.11-1.723,0.657-2.379,1.643l-35.277,47.47V48.051c0-1.094-0.356-1.914-1.066-2.464
			c-0.713-0.547-1.477-0.821-2.298-0.821c-0.82,0-1.586,0.274-2.297,0.821c-0.712,0.55-1.066,1.37-1.066,2.464v88.369
			c0,1.097,0.354,1.918,1.066,2.464c0.711,0.55,1.477,0.821,2.297,0.821c0.821,0,1.585-0.271,2.298-0.821
			c0.71-0.546,1.066-1.367,1.066-2.464v-30.88c2.953-3.832,5.879-7.638,8.778-11.415c2.897-3.778,5.769-7.639,8.614-11.58
			l21.003,53.875c0.546,1.535,1.256,2.492,2.133,2.875c0.874,0.385,1.723,0.438,2.543,0.164c0.82-0.272,1.448-0.821,1.887-1.643
			C724.85,136.995,724.905,136.092,724.577,135.106z M210.598,47.591c-0.549-1.532-1.395-2.71-2.543-3.531s-2.325-1.231-3.528-1.231
			c-1.312,0-2.543,0.41-3.692,1.231c-1.148,0.821-1.997,1.999-2.543,3.531c-4.158,14.676-8.343,29.238-12.552,43.692
			c-4.212,14.455-8.45,28.909-12.716,43.363c-0.548,1.863-0.41,3.342,0.41,4.436c0.82,1.096,1.913,1.78,3.282,2.053
			c1.367,0.274,2.733,0.082,4.102-0.575c1.367-0.657,2.323-1.86,2.872-3.613l21.166-71.944
			c9.614,32.743,21.823,72.272,21.823,72.272c0.546,1.753,1.448,2.903,2.707,3.45c1.256,0.549,2.515,0.631,3.774,0.246
			c1.256-0.383,2.269-1.15,3.036-2.3c0.764-1.149,0.928-2.489,0.492-4.024L210.598,47.591z M329.555,42.828h-6.563
			c-1.751,0-3.035,0.467-3.856,1.396c-0.82,0.932-1.451,2-1.887,3.203l-23.792,68.495c-4.048-11.826-7.932-23.186-11.65-34.083
			c-3.72-10.896-7.547-22.2-11.485-33.919c-0.438-1.204-1.149-2.354-2.133-3.449c-0.984-1.094-2.407-1.643-4.266-1.643h-5.25
			c-1.641,0-2.982,0.521-4.02,1.561c-1.041,1.042-1.559,2.327-1.559,3.859v88.205c0,1.753,0.574,3.067,1.723,3.942
			c1.148,0.878,2.433,1.314,3.856,1.314c1.42,0,2.679-0.437,3.774-1.314c1.092-0.875,1.641-2.189,1.641-3.942V63.195l25.269,73.915
			c0.436,1.314,1.038,2.246,1.805,2.792c0.764,0.55,1.584,0.768,2.461,0.657c0.874-0.107,1.723-0.464,2.543-1.067
			c0.821-0.601,1.395-1.396,1.723-2.382l26.089-73.915v73.258c0,1.753,0.546,3.067,1.641,3.942c1.092,0.878,2.351,1.314,3.774,1.314
			c1.42,0,2.707-0.437,3.856-1.314c1.148-0.875,1.723-2.189,1.723-3.942V48.084c0-1.314-0.302-2.518-0.902-3.613
			C333.465,43.377,331.96,42.828,329.555,42.828z M405.662,95.386c-0.767-2.571-1.888-4.952-3.364-7.144
			c-1.478-2.188-3.365-4.105-5.663-5.748c2.077-2.188,3.419-4.816,4.021-7.883c0.6-3.063,0.903-6.24,0.903-9.525
			c0-8.211-2.134-13.984-6.401-17.325c-4.268-3.338-10.505-5.009-18.711-5.009H354.66c-1.747,0-3.059,0.587-3.935,1.763
			c-0.874,1.175-1.312,2.434-1.312,3.776s0.438,2.576,1.312,3.693c0.699,0.894,1.68,1.424,2.933,1.604v0.08h22.44
			c1.859,0,3.69,0.304,5.387,0.576c1.694,0.274,3.199,0.795,4.512,1.56c1.312,0.768,2.379,1.918,3.2,3.449
			c0.82,1.535,1.23,3.506,1.23,5.913c0,5.039-1.123,8.46-3.364,10.267c-2.243,1.807-5.715,2.495-10.966,2.495h-26.078l-0.001,36.6
			c0,1.747,0.587,3.059,1.763,3.935c1.175,0.874,2.434,1.312,3.777,1.312c1.343,0,2.576-0.438,3.693-1.312
			c1.12-0.876,1.679-2.188,1.679-3.935l0.005-25.684h18.802c3.283,0,6.007,0.769,8.198,1.861c2.188,1.096,3.911,2.656,5.17,4.681
			c1.257,2.027,2.134,4.435,2.626,7.226c0.493,2.792,0.739,5.887,0.739,9.279c0,6.68-1.806,11.495-5.417,14.451
			s-8.668,4.35-15.562,4.35l-4.607,0.027c-0.206-0.019-0.419-0.027-0.639-0.027H354.66c-1.747,0-3.059,0.588-3.935,1.763
			c-0.874,1.175-1.312,2.435-1.312,3.777s0.438,2.575,1.312,3.692c0.876,1.12,2.188,1.679,3.935,1.679h0.926
			c0.061,0.002,0.119,0.013,0.18,0.013h21.994c9.521,0,16.878-2.407,22.077-7.227c5.196-4.816,7.796-12.316,7.796-22.498
			c0-2.846-0.138-5.666-0.411-8.458C406.947,100.641,406.426,97.96,405.662,95.386z M430.381,44.142
			c-1.148-0.875-2.379-1.313-3.691-1.313c-1.313,0-2.518,0.438-3.61,1.313c-1.095,0.878-1.641,2.192-1.641,3.942v88.533
			c0,1.754,0.546,3.067,1.641,3.942c1.092,0.878,2.323,1.314,3.691,1.314c1.367,0,2.597-0.437,3.692-1.314
			c1.092-0.875,1.641-2.188,1.641-3.942V48.084C432.104,46.334,431.53,45.02,430.381,44.142z"/>
	</g>
</g>
<g id="Abgerundetes_Rechteck_2_Kopie_9">
	<g>
		<path fill="#7F7F7F" d="M162.327,50.636c-0.063-7.66-6.147-13.015-13.346-12.014L54.884,51.703
			c-4.022,0.56-7.262,5.454-7.332,10.955l-0.757,58.863c-0.072,5.633,3.086,10.639,7.155,11.184l95.654,12.81
			c7.355,0.984,13.469-4.624,13.404-12.54L162.327,50.636z M133.183,146.312l-68.58-8.81c-2.291-0.295-4.276,1.29-4.468,3.524
			c-0.19,2.225,1.464,4.309,3.729,4.669l67.657,10.781c3.621,0.577,7.006-1.244,7.493-4.096
			C139.504,149.514,136.861,146.785,133.183,146.312z"/>
	</g>
</g>
<g id="Abgerundetes_Rechteck_2_Kopie_9_1_">
	<g>
		<path fill="#6600CC" d="M54.787,143.262c-0.459-2.525-1.621-4.477-3.489-5.853c-1.87-1.376-4.08-1.905-6.629-1.594
			c-2.55,0.311-4.572,1.482-6.068,3.512c-1.494,2.026-2.055,4.274-1.679,6.741c0.375,2.464,1.579,4.446,3.611,5.942
			c2.03,1.494,4.282,2.055,6.751,1.684c2.468-0.375,4.452-1.575,5.946-3.602C54.725,148.064,55.244,145.786,54.787,143.262z"/>
	</g>
</g>
<g id="Abgerundetes_Rechteck_2_Kopie_9_2_">
	<g>
		<path fill="#003399" d="M37.364,122.493c-1.411-2.167-3.507-3.583-6.288-4.255c-2.781-0.675-5.35-0.244-7.705,1.284
			c-2.353,1.527-3.819,3.649-4.396,6.367c-0.576,2.715-0.098,5.252,1.434,7.605c1.531,2.352,3.66,3.817,6.379,4.396
			c2.72,0.576,5.26,0.102,7.613-1.426c2.355-1.528,3.791-3.699,4.304-6.508C39.218,127.146,38.772,124.658,37.364,122.493z"/>
	</g>
</g>
<g id="Abgerundetes_Rechteck_2_Kopie_9_3_">
	<g>
		<path fill="#0099CC" d="M29.086,101.402c-0.508-2.802-2.033-5.135-4.572-7.002c-2.539-1.871-5.333-2.529-8.38-1.98
			c-3.044,0.547-5.442,2.077-7.189,4.593c-1.745,2.511-2.344,5.291-1.792,8.335c0.551,3.042,2.088,5.438,4.604,7.186
			c2.519,1.744,5.303,2.346,8.348,1.798c3.047-0.548,5.433-2.141,7.156-4.775C28.983,106.919,29.594,104.201,29.086,101.402z"/>
	</g>
</g>
<g id="Abgerundetes_Rechteck_2_Kopie_9_4_">
	<g>
		<path fill="#009900" d="M28.994,67.521c-1.634-3.031-4.086-4.985-7.354-5.866c-3.264-0.88-6.349-0.488-9.252,1.179
			c-2.899,1.666-4.792,4.13-5.671,7.393c-0.878,3.26-0.48,6.342,1.189,9.242c1.673,2.898,4.142,4.791,7.407,5.671
			c3.267,0.881,6.37,0.422,9.305-1.374c2.935-1.8,4.81-4.197,5.618-7.197C31.044,73.565,30.628,70.551,28.994,67.521z"/>
	</g>
</g>
<g id="Abgerundetes_Rechteck_2_Kopie_9_5_">
	<g>
		<path fill="#FFCC00" d="M42.581,34.235c-2.7-2.48-5.865-3.648-9.496-3.499c-3.626,0.149-6.684,1.572-9.168,4.269
			c-2.481,2.694-3.645,5.858-3.494,9.482c0.156,3.624,1.583,6.68,4.282,9.161c2.703,2.482,5.919,3.595,9.645,3.337
			c3.729-0.261,6.736-1.628,9.019-4.107c2.286-2.482,3.398-5.59,3.345-9.319C46.664,39.825,45.283,36.719,42.581,34.235z"/>
	</g>
</g>
<g id="Abgerundetes_Rechteck_2_Kopie_9_6_">
	<g>
		<path fill="#FF9900" d="M77.416,19.41c-1.196-3.766-3.532-6.552-7.01-8.355c-3.474-1.801-7.1-2.109-10.872-0.917
			c-3.768,1.191-6.555,3.525-8.358,6.994c-1.799,3.472-2.104,7.093-0.908,10.858c1.197,3.768,3.611,6.53,7.237,8.283
			c3.629,1.752,7.177,2.084,10.645,0.988c3.471-1.098,6.18-3.406,8.132-6.923C78.237,26.821,78.612,23.178,77.416,19.41z"/>
	</g>
</g>
<g id="Abgerundetes_Rechteck_2_Kopie_9_7_">
	<g>
		<path fill="#CC0000" d="M116.729,14.155c-2.115-3.622-5.226-5.978-9.331-7.06c-4.1-1.08-7.967-0.563-11.595,1.545
			c-3.625,2.113-5.981,5.218-7.059,9.312c-1.079,4.099-0.477,7.982,1.804,11.648c2.284,3.666,5.31,6,9.083,6.994
			c3.778,0.995,7.56,0.456,11.35-1.609c3.793-2.064,6.226-5.149,7.305-9.248C119.365,21.644,118.847,17.781,116.729,14.155z"/>
	</g>
</g>
</svg>
